<?xml version="1.0" encoding="UTF-8"?>
<svg width="800px" height="800px" version="1.1" viewBox="0 -5 32 32" xmlns="http://www.w3.org/2000/svg">
<title>delete</title>
<desc>Created with Sketch Beta.</desc>
<g fill="none" fill-rule="evenodd">
<g transform="translate(-516 -1144)" fill="#000">
<path d="m538.71 1151.3c-0.394-0.39-1.032-0.39-1.427 0l-2.3 2.3-2.239-2.24c-0.39-0.39-1.024-0.39-1.415 0s-0.391 1.03 0 1.42l2.239 2.23-2.268 2.27c-0.394 0.39-0.394 1.03 0 1.43 0.394 0.39 1.033 0.39 1.427 0l2.268-2.27 2.239 2.24c0.391 0.39 1.025 0.39 1.415 0 0.392-0.39 0.392-1.03 0-1.42l-2.239-2.23 2.3-2.3c0.395-0.4 0.395-1.03 0-1.43zm7.29 10.72c0 1.1-0.896 2-2.002 2h-17.529l-8.151-9.02 8.122-8.98h17.558c1.106 0 2.002 0.9 2.002 2v14zm-2.002-18h-17.945c-0.28-0.02-0.566 0.07-0.78 0.28l-8.986 9.94c-0.211 0.21-0.302 0.49-0.287 0.76-0.015 0.28 0.076 0.56 0.287 0.77l8.986 9.94c0.196 0.19 0.452 0.29 0.708 0.29v0.02h18.017c2.211 0 4.004-1.79 4.004-4v-14c0-2.21-1.793-4-4.004-4z"></path>
</g>
</g>
</svg>